<mxfile host="Electron" agent="Mozilla/5.0 (Windows NT 10.0; Win64; x64) AppleWebKit/537.36 (KHTML, like Gecko) draw.io/28.0.4 Chrome/138.0.7204.97 Electron/37.2.1 Safari/537.36" version="28.0.4">
  <diagram name="Página-1" id="jfAPY-3q2WdGzKdS7vCE">
    <mxGraphModel dx="2226" dy="441" grid="1" gridSize="10" guides="1" tooltips="1" connect="1" arrows="1" fold="1" page="0" pageScale="1" pageWidth="827" pageHeight="1169" math="0" shadow="0">
      <root>
        <mxCell id="0" />
        <mxCell id="1" parent="0" />
        <mxCell id="Qik6YUHW1CqDeXKeddzL-53" value="" style="edgeStyle=orthogonalEdgeStyle;rounded=0;orthogonalLoop=1;jettySize=auto;html=1;endArrow=none;endFill=0;dashed=1;fillColor=#1ba1e2;strokeColor=light-dark(#006EAF, #8a8a8a);shadow=1;" parent="1" source="Qik6YUHW1CqDeXKeddzL-51" target="Qik6YUHW1CqDeXKeddzL-52" edge="1">
          <mxGeometry relative="1" as="geometry" />
        </mxCell>
        <mxCell id="Qik6YUHW1CqDeXKeddzL-55" value="" style="edgeStyle=orthogonalEdgeStyle;rounded=0;orthogonalLoop=1;jettySize=auto;html=1;endArrow=none;endFill=0;fillColor=#1ba1e2;strokeColor=light-dark(#006EAF, #8a8a8a);shadow=1;" parent="1" source="Qik6YUHW1CqDeXKeddzL-51" edge="1">
          <mxGeometry relative="1" as="geometry">
            <mxPoint x="-10" y="760" as="targetPoint" />
          </mxGeometry>
        </mxCell>
        <object label="&lt;font style=&quot;font-size: 11px;&quot;&gt;Alcalde&lt;/font&gt;" rol_1="Alcalde" id="Qik6YUHW1CqDeXKeddzL-51">
          <mxCell style="id=rol_1;rounded=0;whiteSpace=wrap;html=1;movable=1;resizable=1;rotatable=1;deletable=1;editable=1;locked=0;connectable=1;fillColor=#1ba1e2;fontColor=#ffffff;strokeColor=light-dark(#006EAF, #8a8a8a);shadow=1;" parent="1" vertex="1">
            <mxGeometry x="-70" y="550" width="120" height="60" as="geometry" />
          </mxCell>
        </object>
        <mxCell id="Qik6YUHW1CqDeXKeddzL-52" value="&lt;div&gt;&lt;font style=&quot;font-size: 11px;&quot;&gt;Concejo&lt;/font&gt;&lt;/div&gt;&lt;div&gt;&lt;font style=&quot;font-size: 11px;&quot;&gt;Municipal&lt;/font&gt;&lt;/div&gt;" style="id=rol_2;whiteSpace=wrap;html=1;rounded=0;fillColor=#1ba1e2;fontColor=#ffffff;strokeColor=light-dark(#006EAF, #8a8a8a);shadow=1;" parent="1" vertex="1">
          <mxGeometry x="110" y="550" width="120" height="60" as="geometry" />
        </mxCell>
        <mxCell id="Qik6YUHW1CqDeXKeddzL-57" value="" style="edgeStyle=orthogonalEdgeStyle;rounded=0;orthogonalLoop=1;jettySize=auto;html=1;endArrow=none;endFill=0;fillColor=#1ba1e2;strokeColor=light-dark(#006EAF, #8a8a8a);shadow=1;" parent="1" target="Qik6YUHW1CqDeXKeddzL-56" edge="1">
          <mxGeometry relative="1" as="geometry">
            <mxPoint x="-10" y="720" as="sourcePoint" />
            <Array as="points">
              <mxPoint x="-10" y="660" />
              <mxPoint x="-150" y="660" />
            </Array>
          </mxGeometry>
        </mxCell>
        <mxCell id="Qik6YUHW1CqDeXKeddzL-56" value="&lt;font style=&quot;font-size: 11px;&quot;&gt;Cosoc&lt;/font&gt;" style="id=rol_3;rounded=0;whiteSpace=wrap;html=1;fillColor=#1ba1e2;fontColor=#ffffff;strokeColor=light-dark(#006EAF, #8a8a8a);shadow=1;" parent="1" vertex="1">
          <mxGeometry x="-210" y="630" width="120" height="60" as="geometry" />
        </mxCell>
        <mxCell id="Qik6YUHW1CqDeXKeddzL-58" value="" style="endArrow=none;html=1;rounded=0;fillColor=#1ba1e2;strokeColor=light-dark(#006EAF, #8a8a8a);shadow=1;" parent="1" edge="1">
          <mxGeometry width="50" height="50" relative="1" as="geometry">
            <mxPoint x="-150" y="749.77" as="sourcePoint" />
            <mxPoint x="-10" y="749.77" as="targetPoint" />
          </mxGeometry>
        </mxCell>
        <mxCell id="Qik6YUHW1CqDeXKeddzL-64" value="" style="edgeStyle=orthogonalEdgeStyle;rounded=0;orthogonalLoop=1;jettySize=auto;html=1;" parent="1" source="Qik6YUHW1CqDeXKeddzL-59" edge="1">
          <mxGeometry relative="1" as="geometry" />
        </mxCell>
        <mxCell id="6WwWut21OLdbgOuvuQKQ-2" value="" style="edgeStyle=orthogonalEdgeStyle;rounded=0;orthogonalLoop=1;jettySize=auto;html=1;endArrow=none;endFill=0;fillColor=#1ba1e2;strokeColor=light-dark(#006EAF, #8a8a8a);shadow=1;" parent="1" source="Qik6YUHW1CqDeXKeddzL-59" target="6WwWut21OLdbgOuvuQKQ-1" edge="1">
          <mxGeometry relative="1" as="geometry" />
        </mxCell>
        <mxCell id="6WwWut21OLdbgOuvuQKQ-4" style="edgeStyle=orthogonalEdgeStyle;rounded=0;orthogonalLoop=1;jettySize=auto;html=1;entryX=0.5;entryY=0;entryDx=0;entryDy=0;endArrow=none;endFill=0;fillColor=#1ba1e2;strokeColor=light-dark(#006EAF, #8a8a8a);shadow=1;" parent="1" source="Qik6YUHW1CqDeXKeddzL-59" target="6WwWut21OLdbgOuvuQKQ-3" edge="1">
          <mxGeometry relative="1" as="geometry" />
        </mxCell>
        <mxCell id="Qik6YUHW1CqDeXKeddzL-59" value="&lt;div&gt;&lt;font style=&quot;font-size: 11px;&quot;&gt;Administración&lt;/font&gt;&lt;/div&gt;&lt;div&gt;&lt;font style=&quot;font-size: 11px;&quot;&gt;Municipal&lt;/font&gt;&lt;/div&gt;" style="id=rol_4;rounded=0;whiteSpace=wrap;html=1;fillColor=#1ba1e2;fontColor=#ffffff;strokeColor=light-dark(#006EAF, #8a8a8a);shadow=1;" parent="1" vertex="1">
          <mxGeometry x="-270" y="720" width="120" height="60" as="geometry" />
        </mxCell>
        <mxCell id="Qik6YUHW1CqDeXKeddzL-60" value="" style="endArrow=none;html=1;rounded=0;fillColor=#1ba1e2;strokeColor=light-dark(#006EAF, #8a8a8a);shadow=1;" parent="1" edge="1">
          <mxGeometry width="50" height="50" relative="1" as="geometry">
            <mxPoint x="-10" y="920" as="sourcePoint" />
            <mxPoint x="-10" y="760" as="targetPoint" />
          </mxGeometry>
        </mxCell>
        <mxCell id="Qik6YUHW1CqDeXKeddzL-61" value="&lt;div&gt;&lt;font style=&quot;font-size: 11px;&quot;&gt;Juzgados&lt;/font&gt;&lt;/div&gt;&lt;div&gt;&lt;font style=&quot;font-size: 11px;&quot;&gt;1º-2º-3º&lt;/font&gt;&lt;/div&gt;" style="id=rol_5;rounded=0;whiteSpace=wrap;html=1;fillColor=#1ba1e2;fontColor=#ffffff;strokeColor=light-dark(#006EAF, #8a8a8a);shadow=1;" parent="1" vertex="1">
          <mxGeometry x="50" y="770" width="120" height="60" as="geometry" />
        </mxCell>
        <mxCell id="6WwWut21OLdbgOuvuQKQ-1" value="&lt;font style=&quot;font-size: 11px;&quot;&gt;OIRS&lt;/font&gt;" style="id=rol_6;whiteSpace=wrap;html=1;rounded=0;fillColor=#1ba1e2;fontColor=#ffffff;strokeColor=light-dark(#006EAF, #8a8a8a);shadow=1;" parent="1" vertex="1">
          <mxGeometry x="-370" y="820" width="100" height="40" as="geometry" />
        </mxCell>
        <mxCell id="6WwWut21OLdbgOuvuQKQ-3" value="&lt;font style=&quot;font-size: 11px;&quot;&gt;Depto. Licitaciones&lt;/font&gt;" style="id=rol_7;whiteSpace=wrap;html=1;rounded=0;fillColor=#1ba1e2;fontColor=#ffffff;strokeColor=light-dark(#006EAF, #8a8a8a);shadow=1;" parent="1" vertex="1">
          <mxGeometry x="-150" y="820" width="100" height="40" as="geometry" />
        </mxCell>
        <mxCell id="6WwWut21OLdbgOuvuQKQ-5" value="" style="endArrow=none;html=1;rounded=0;fillColor=#1ba1e2;strokeColor=light-dark(#006EAF, #8a8a8a);shadow=1;" parent="1" edge="1">
          <mxGeometry width="50" height="50" relative="1" as="geometry">
            <mxPoint x="-550" y="920" as="sourcePoint" />
            <mxPoint x="-190" y="920" as="targetPoint" />
          </mxGeometry>
        </mxCell>
        <mxCell id="6WwWut21OLdbgOuvuQKQ-6" value="" style="endArrow=none;html=1;rounded=0;fillColor=#1ba1e2;strokeColor=light-dark(#006EAF, #8a8a8a);shadow=1;" parent="1" edge="1">
          <mxGeometry width="50" height="50" relative="1" as="geometry">
            <mxPoint x="-190" y="920" as="sourcePoint" />
            <mxPoint x="620" y="920" as="targetPoint" />
          </mxGeometry>
        </mxCell>
        <mxCell id="6WwWut21OLdbgOuvuQKQ-7" value="" style="endArrow=none;html=1;rounded=0;fillColor=#1ba1e2;strokeColor=light-dark(#006EAF, #8a8a8a);shadow=1;" parent="1" edge="1">
          <mxGeometry width="50" height="50" relative="1" as="geometry">
            <mxPoint x="-550" y="960" as="sourcePoint" />
            <mxPoint x="-550" y="920" as="targetPoint" />
          </mxGeometry>
        </mxCell>
        <mxCell id="6WwWut21OLdbgOuvuQKQ-8" value="&lt;font style=&quot;font-size: 11px;&quot;&gt;Seguridad Publica&lt;/font&gt;" style="id=rol_8;rounded=0;whiteSpace=wrap;html=1;fillColor=#1ba1e2;fontColor=#ffffff;strokeColor=light-dark(#006EAF, #8a8a8a);shadow=1;" parent="1" vertex="1">
          <mxGeometry x="-600" y="960" width="100" height="40" as="geometry" />
        </mxCell>
        <mxCell id="6WwWut21OLdbgOuvuQKQ-9" value="&lt;font style=&quot;font-size: 11px;&quot;&gt;Secretaria Municipal&lt;/font&gt;" style="id=rol_9;rounded=0;whiteSpace=wrap;html=1;fillColor=#1ba1e2;fontColor=#ffffff;strokeColor=light-dark(#006EAF, #8a8a8a);shadow=1;" parent="1" vertex="1">
          <mxGeometry x="-510" y="1010" width="100" height="40" as="geometry" />
        </mxCell>
        <mxCell id="6WwWut21OLdbgOuvuQKQ-22" value="" style="endArrow=none;html=1;rounded=0;fillColor=#1ba1e2;strokeColor=light-dark(#006EAF, #8a8a8a);shadow=1;" parent="1" edge="1">
          <mxGeometry width="50" height="50" relative="1" as="geometry">
            <mxPoint x="-460" y="1010" as="sourcePoint" />
            <mxPoint x="-460" y="920" as="targetPoint" />
          </mxGeometry>
        </mxCell>
        <mxCell id="6WwWut21OLdbgOuvuQKQ-26" value="" style="endArrow=none;html=1;rounded=0;fillColor=#1ba1e2;strokeColor=light-dark(#006EAF, #8a8a8a);shadow=1;" parent="1" edge="1">
          <mxGeometry width="50" height="50" relative="1" as="geometry">
            <mxPoint x="-370" y="960" as="sourcePoint" />
            <mxPoint x="-370" y="920" as="targetPoint" />
          </mxGeometry>
        </mxCell>
        <mxCell id="6WwWut21OLdbgOuvuQKQ-27" value="&lt;font style=&quot;font-size: 11px;&quot;&gt;Dirección Operaciones&lt;/font&gt;" style="id=rol_10;rounded=0;whiteSpace=wrap;html=1;fillColor=#1ba1e2;fontColor=#ffffff;strokeColor=light-dark(#006EAF, #8a8a8a);shadow=1;" parent="1" vertex="1">
          <mxGeometry x="-420" y="960" width="100" height="40" as="geometry" />
        </mxCell>
        <mxCell id="6WwWut21OLdbgOuvuQKQ-28" value="&lt;font style=&quot;font-size: 11px;&quot;&gt;Dirección Jurídica&lt;/font&gt;" style="id=rol_11;rounded=0;whiteSpace=wrap;html=1;fillColor=#1ba1e2;fontColor=#ffffff;strokeColor=light-dark(#006EAF, #8a8a8a);shadow=1;" parent="1" vertex="1">
          <mxGeometry x="-330" y="1010" width="100" height="40" as="geometry" />
        </mxCell>
        <mxCell id="6WwWut21OLdbgOuvuQKQ-29" value="" style="endArrow=none;html=1;rounded=0;fillColor=#1ba1e2;strokeColor=light-dark(#006EAF, #8a8a8a);shadow=1;" parent="1" edge="1">
          <mxGeometry width="50" height="50" relative="1" as="geometry">
            <mxPoint x="-280" y="1010" as="sourcePoint" />
            <mxPoint x="-280" y="920" as="targetPoint" />
          </mxGeometry>
        </mxCell>
        <mxCell id="6WwWut21OLdbgOuvuQKQ-30" value="" style="endArrow=none;html=1;rounded=0;fillColor=#1ba1e2;strokeColor=light-dark(#006EAF, #8a8a8a);shadow=1;" parent="1" edge="1">
          <mxGeometry width="50" height="50" relative="1" as="geometry">
            <mxPoint x="-190" y="960" as="sourcePoint" />
            <mxPoint x="-190" y="920" as="targetPoint" />
          </mxGeometry>
        </mxCell>
        <mxCell id="6WwWut21OLdbgOuvuQKQ-31" value="&lt;font style=&quot;font-size: 11px;&quot;&gt;Dirección de Turismo&lt;/font&gt;" style="id=rol_12;rounded=0;whiteSpace=wrap;html=1;fillColor=#1ba1e2;fontColor=#ffffff;strokeColor=light-dark(#006EAF, #8a8a8a);shadow=1;" parent="1" vertex="1">
          <mxGeometry x="-240" y="960" width="100" height="40" as="geometry" />
        </mxCell>
        <mxCell id="6WwWut21OLdbgOuvuQKQ-32" value="&lt;font style=&quot;font-size: 11px;&quot;&gt;Secretaria Comunal Planificación&lt;/font&gt;" style="id=rol_13;rounded=0;whiteSpace=wrap;html=1;fillColor=#1ba1e2;fontColor=#ffffff;strokeColor=light-dark(#006EAF, #8a8a8a);shadow=1;" parent="1" vertex="1">
          <mxGeometry x="-150" y="1010" width="100" height="40" as="geometry" />
        </mxCell>
        <mxCell id="6WwWut21OLdbgOuvuQKQ-33" value="" style="endArrow=none;html=1;rounded=0;fillColor=#1ba1e2;strokeColor=light-dark(#006EAF, #8a8a8a);shadow=1;" parent="1" edge="1">
          <mxGeometry width="50" height="50" relative="1" as="geometry">
            <mxPoint x="-100" y="1010" as="sourcePoint" />
            <mxPoint x="-100" y="920" as="targetPoint" />
          </mxGeometry>
        </mxCell>
        <mxCell id="6WwWut21OLdbgOuvuQKQ-38" value="" style="endArrow=none;html=1;rounded=0;fillColor=#1ba1e2;strokeColor=light-dark(#006EAF, #8a8a8a);shadow=1;" parent="1" edge="1">
          <mxGeometry width="50" height="50" relative="1" as="geometry">
            <mxPoint x="-10" y="960" as="sourcePoint" />
            <mxPoint x="-10" y="920" as="targetPoint" />
          </mxGeometry>
        </mxCell>
        <mxCell id="6WwWut21OLdbgOuvuQKQ-39" value="&lt;font style=&quot;font-size: 11px;&quot;&gt;Dirección de Concesiones&lt;/font&gt;" style="id=rol_14;rounded=0;whiteSpace=wrap;html=1;fillColor=#1ba1e2;fontColor=#ffffff;strokeColor=light-dark(#006EAF, #8a8a8a);shadow=1;" parent="1" vertex="1">
          <mxGeometry x="-60" y="960" width="100" height="40" as="geometry" />
        </mxCell>
        <mxCell id="6WwWut21OLdbgOuvuQKQ-40" value="&lt;font style=&quot;font-size: 11px;&quot;&gt;Dirección de Transito&lt;/font&gt;" style="id=rol_15;rounded=0;whiteSpace=wrap;html=1;fillColor=#1ba1e2;fontColor=#ffffff;strokeColor=light-dark(#006EAF, #8a8a8a);shadow=1;" parent="1" vertex="1">
          <mxGeometry x="30" y="1010" width="100" height="40" as="geometry" />
        </mxCell>
        <mxCell id="6WwWut21OLdbgOuvuQKQ-41" value="" style="endArrow=none;html=1;rounded=0;fillColor=#1ba1e2;strokeColor=light-dark(#006EAF, #8a8a8a);shadow=1;" parent="1" edge="1">
          <mxGeometry width="50" height="50" relative="1" as="geometry">
            <mxPoint x="80" y="1010" as="sourcePoint" />
            <mxPoint x="80" y="920" as="targetPoint" />
          </mxGeometry>
        </mxCell>
        <mxCell id="6WwWut21OLdbgOuvuQKQ-42" value="" style="endArrow=none;html=1;rounded=0;fillColor=#1ba1e2;strokeColor=light-dark(#006EAF, #8a8a8a);shadow=1;" parent="1" edge="1">
          <mxGeometry width="50" height="50" relative="1" as="geometry">
            <mxPoint x="170" y="960" as="sourcePoint" />
            <mxPoint x="170" y="920" as="targetPoint" />
          </mxGeometry>
        </mxCell>
        <mxCell id="6WwWut21OLdbgOuvuQKQ-43" value="&lt;font style=&quot;font-size: 11px;&quot;&gt;Dirección Administración y Finanzas&amp;nbsp;&lt;/font&gt;" style="id=rol_16;rounded=0;whiteSpace=wrap;html=1;fillColor=#1ba1e2;fontColor=#ffffff;strokeColor=light-dark(#006EAF, #8a8a8a);shadow=1;" parent="1" vertex="1">
          <mxGeometry x="120" y="960" width="100" height="40" as="geometry" />
        </mxCell>
        <mxCell id="6WwWut21OLdbgOuvuQKQ-44" value="&lt;font style=&quot;font-size: 11px;&quot;&gt;Dirección de Obras&lt;/font&gt;" style="id=rol_17;rounded=0;whiteSpace=wrap;html=1;fillColor=#1ba1e2;fontColor=#ffffff;strokeColor=light-dark(#006EAF, #8a8a8a);shadow=1;" parent="1" vertex="1">
          <mxGeometry x="210" y="1010" width="100" height="40" as="geometry" />
        </mxCell>
        <mxCell id="6WwWut21OLdbgOuvuQKQ-45" value="" style="endArrow=none;html=1;rounded=0;fillColor=#1ba1e2;strokeColor=light-dark(#006EAF, #8a8a8a);shadow=1;" parent="1" edge="1">
          <mxGeometry width="50" height="50" relative="1" as="geometry">
            <mxPoint x="260" y="1010" as="sourcePoint" />
            <mxPoint x="260" y="920" as="targetPoint" />
          </mxGeometry>
        </mxCell>
        <mxCell id="6WwWut21OLdbgOuvuQKQ-46" value="" style="endArrow=none;html=1;rounded=0;fillColor=#1ba1e2;strokeColor=light-dark(#006EAF, #8a8a8a);shadow=1;" parent="1" edge="1">
          <mxGeometry width="50" height="50" relative="1" as="geometry">
            <mxPoint x="350" y="960" as="sourcePoint" />
            <mxPoint x="350" y="920" as="targetPoint" />
          </mxGeometry>
        </mxCell>
        <mxCell id="6WwWut21OLdbgOuvuQKQ-47" value="&lt;font style=&quot;font-size: 11px;&quot;&gt;Dirección de Control&lt;/font&gt;" style="id=rol_18;rounded=0;whiteSpace=wrap;html=1;fillColor=#1ba1e2;fontColor=#ffffff;strokeColor=light-dark(#006EAF, #8a8a8a);shadow=1;" parent="1" vertex="1">
          <mxGeometry x="300" y="960" width="100" height="40" as="geometry" />
        </mxCell>
        <mxCell id="6WwWut21OLdbgOuvuQKQ-48" value="&lt;font style=&quot;font-size: 11px;&quot;&gt;Dirección Medio Ambiente Aseo y Ornato&lt;/font&gt;" style="id=rol_19;rounded=0;whiteSpace=wrap;html=1;fillColor=#1ba1e2;fontColor=#ffffff;strokeColor=light-dark(#006EAF, #8a8a8a);shadow=1;" parent="1" vertex="1">
          <mxGeometry x="390" y="1010" width="100" height="40" as="geometry" />
        </mxCell>
        <mxCell id="6WwWut21OLdbgOuvuQKQ-49" value="" style="endArrow=none;html=1;rounded=0;fillColor=#1ba1e2;strokeColor=light-dark(#006EAF, #8a8a8a);shadow=1;" parent="1" edge="1">
          <mxGeometry width="50" height="50" relative="1" as="geometry">
            <mxPoint x="440" y="1010" as="sourcePoint" />
            <mxPoint x="440" y="920" as="targetPoint" />
          </mxGeometry>
        </mxCell>
        <mxCell id="6WwWut21OLdbgOuvuQKQ-50" value="" style="endArrow=none;html=1;rounded=0;fillColor=#1ba1e2;strokeColor=light-dark(#006EAF, #8a8a8a);shadow=1;" parent="1" edge="1">
          <mxGeometry width="50" height="50" relative="1" as="geometry">
            <mxPoint x="530" y="960" as="sourcePoint" />
            <mxPoint x="530" y="920" as="targetPoint" />
          </mxGeometry>
        </mxCell>
        <mxCell id="6WwWut21OLdbgOuvuQKQ-51" value="&lt;font style=&quot;font-size: 11px;&quot;&gt;Dirección Desarrollo Comunitario&lt;/font&gt;" style="id=rol_20;rounded=0;whiteSpace=wrap;html=1;fillColor=#1ba1e2;fontColor=#ffffff;strokeColor=light-dark(#006EAF, #8a8a8a);shadow=1;" parent="1" vertex="1">
          <mxGeometry x="480" y="960" width="100" height="40" as="geometry" />
        </mxCell>
        <mxCell id="6WwWut21OLdbgOuvuQKQ-52" value="&lt;font style=&quot;font-size: 11px;&quot;&gt;Servicios Traspasados&lt;/font&gt;" style="id=rol_21;rounded=0;whiteSpace=wrap;html=1;fillColor=#1ba1e2;fontColor=#ffffff;strokeColor=light-dark(#006EAF, #8a8a8a);shadow=1;" parent="1" vertex="1">
          <mxGeometry x="570" y="1010" width="100" height="40" as="geometry" />
        </mxCell>
        <mxCell id="6WwWut21OLdbgOuvuQKQ-53" value="" style="endArrow=none;html=1;rounded=0;fillColor=#1ba1e2;strokeColor=light-dark(#006EAF, #8a8a8a);shadow=1;" parent="1" edge="1">
          <mxGeometry width="50" height="50" relative="1" as="geometry">
            <mxPoint x="620" y="1010" as="sourcePoint" />
            <mxPoint x="620" y="920" as="targetPoint" />
          </mxGeometry>
        </mxCell>
        <mxCell id="6WwWut21OLdbgOuvuQKQ-54" value="" style="endArrow=none;html=1;rounded=0;entryX=0;entryY=0.5;entryDx=0;entryDy=0;fillColor=#1ba1e2;strokeColor=light-dark(#006EAF, #8a8a8a);shadow=1;" parent="1" target="Qik6YUHW1CqDeXKeddzL-61" edge="1">
          <mxGeometry width="50" height="50" relative="1" as="geometry">
            <mxPoint x="-10" y="800" as="sourcePoint" />
            <mxPoint x="30" y="810" as="targetPoint" />
          </mxGeometry>
        </mxCell>
      </root>
    </mxGraphModel>
  </diagram>
</mxfile>
